<svg width="24" height="38" fill="none" xmlns="http://www.w3.org/2000/svg"><path d="M23.646 24.8c0-5.64-4.88-7.12-9.32-8.16v-6.8c2 .24 4.08.92 6.12 2.08l2-4.92c-2.2-1.4-5.12-2.2-8.12-2.44V.2h-4v4.44c-6.32.72-9.4 4.36-9.4 8.6 0 5.72 4.96 7.2 9.4 8.28v6.68c-2.88-.28-5.76-1.36-7.76-2.84l-2.2 4.88c2.2 1.72 6 2.96 9.96 3.2v4.36h4v-4.48c6.28-.76 9.32-4.36 9.32-8.52zM7.366 12.92c0-1.32.84-2.48 2.96-2.96v5.68c-1.76-.56-2.96-1.32-2.96-2.72zm6.96 15.12v-5.52c1.72.6 2.88 1.36 2.88 2.76 0 1.28-.88 2.32-2.88 2.76z" fill="#4A4D60"/></svg>